<mxfile host="65bd71144e">
    <diagram id="A77a7JQUWSDHK9cmq90B" name="Page-1">
        <mxGraphModel dx="690" dy="535" grid="1" gridSize="10" guides="1" tooltips="1" connect="1" arrows="1" fold="1" page="1" pageScale="1" pageWidth="850" pageHeight="1100" math="0" shadow="0">
            <root>
                <mxCell id="0"/>
                <mxCell id="1" parent="0"/>
                <mxCell id="2" value="Ejemplo" style="rounded=0;whiteSpace=wrap;html=1;fillColor=#f5f5f5;strokeColor=#666666;fontColor=#333333;" vertex="1" parent="1">
                    <mxGeometry x="260" y="140" width="120" height="60" as="geometry"/>
                </mxCell>
                <mxCell id="7" value="Horizontal Flow Layout" style="swimlane;html=1;startSize=20;horizontal=0;childLayout=flowLayout;flowOrientation=west;resizable=0;interRankCellSpacing=50;containerType=tree;" vertex="1" parent="1">
                    <mxGeometry x="90" y="270" width="460" height="150" as="geometry"/>
                </mxCell>
                <mxCell id="8" value="Start" style="whiteSpace=wrap;html=1;" vertex="1" parent="7">
                    <mxGeometry x="40" y="55" width="100" height="40" as="geometry"/>
                </mxCell>
                <mxCell id="9" value="Task" style="whiteSpace=wrap;html=1;" vertex="1" parent="7">
                    <mxGeometry x="190" y="20" width="100" height="40" as="geometry"/>
                </mxCell>
                <mxCell id="10" value="" style="html=1;curved=1;noEdgeStyle=1;orthogonal=1;" edge="1" parent="7" source="8" target="9">
                    <mxGeometry relative="1" as="geometry">
                        <Array as="points">
                            <mxPoint x="152" y="67.5"/>
                            <mxPoint x="178" y="40"/>
                        </Array>
                    </mxGeometry>
                </mxCell>
                <mxCell id="11" value="Task" style="whiteSpace=wrap;html=1;" vertex="1" parent="7">
                    <mxGeometry x="190" y="90" width="100" height="40" as="geometry"/>
                </mxCell>
                <mxCell id="12" value="" style="html=1;curved=1;noEdgeStyle=1;orthogonal=1;" edge="1" parent="7" source="8" target="11">
                    <mxGeometry relative="1" as="geometry">
                        <Array as="points">
                            <mxPoint x="152" y="82.5"/>
                            <mxPoint x="178" y="110"/>
                        </Array>
                    </mxGeometry>
                </mxCell>
                <mxCell id="13" value="End" style="whiteSpace=wrap;html=1;" vertex="1" parent="7">
                    <mxGeometry x="340" y="55" width="100" height="40" as="geometry"/>
                </mxCell>
                <mxCell id="14" value="" style="html=1;curved=1;noEdgeStyle=1;orthogonal=1;" edge="1" parent="7" source="9" target="13">
                    <mxGeometry relative="1" as="geometry">
                        <Array as="points">
                            <mxPoint x="302" y="40"/>
                            <mxPoint x="328" y="67.5"/>
                        </Array>
                    </mxGeometry>
                </mxCell>
                <mxCell id="15" value="" style="html=1;curved=1;noEdgeStyle=1;orthogonal=1;" edge="1" parent="7" source="11" target="13">
                    <mxGeometry relative="1" as="geometry">
                        <Array as="points">
                            <mxPoint x="302" y="110"/>
                            <mxPoint x="328" y="82.5"/>
                        </Array>
                    </mxGeometry>
                </mxCell>
            </root>
        </mxGraphModel>
    </diagram>
</mxfile>